<svg xmlns="http://www.w3.org/2000/svg" viewBox="0 0 100 100" role="img" aria-label="Buildex">
  <!-- Produit par apps/web/scripts/generer-marque.mjs — ne pas éditer à la main.
       Le tourbillon seul : à 16 px, les nœuds du logo complet font moins d'un
       pixel et se réduisent à du bruit. Aucun aplat de fond, pour que la marque
       se pose aussi bien sur un onglet clair que sombre. -->
  <path d="M50 4L47.29 4.8L47.26 5.51L47.65 6.19L48.24 6.85L48.96 7.51L49.75 8.16L50.59 8.82L51.47 9.49L52.36 10.17L53.27 10.86L54.18 11.56L55.1 12.29L56.01 13.02L56.9 13.78L57.79 14.55L58.67 15.34L59.52 16.15L60.36 16.97L61.18 17.81L61.97 18.67L62.74 19.54L63.49 20.43L64.2 21.34L64.89 22.26L65.56 23.19L66.19 24.14L66.79 25.1L67.36 26.07L67.89 27.06L68.39 28.05L68.86 29.05L69.3 30.06L69.7 31.08L70.06 32.1L70.38 33.12L70.67 34.15L70.93 35.18L71.14 36.22L71.32 37.25L71.46 38.28L71.56 39.3L71.63 40.32L71.65 41.34L71.64 42.35L71.6 43.35L71.51 44.34L71.39 45.32L71.23 46.28L71.03 47.23L70.8 48.17L70.53 49.09L70.23 49.99L69.9 50.87L69.53 51.72L69.12 52.56L68.69 53.37L68.23 54.16L67.73 54.92L67.21 55.66L66.66 56.36L66.08 57.04L65.47 57.68L64.84 58.3L64.19 58.88L63.51 59.43L62.82 59.94L62.1 60.41L61.36 60.86L60.6 61.26L59.83 61.62L59.04 61.95L58.23 62.24L57.41 62.49L56.56 62.7L55.7 62.86L54.81 62.99L53.89 63.06L52.91 63.1L51.82 63.08L50 63L50 63L49.21 63.18L49.18 63.39L49.27 63.61L49.44 63.84L49.66 64.06L49.91 64.29L50.21 64.52L50.53 64.74L50.89 64.96L51.27 65.17L51.67 65.38L52.1 65.57L52.56 65.76L53.04 65.93L53.54 66.09L54.06 66.24L54.6 66.37L55.17 66.48L55.76 66.58L56.36 66.66L56.99 66.71L57.64 66.74L58.3 66.75L58.98 66.73L59.68 66.69L60.4 66.62L61.13 66.51L61.88 66.38L62.64 66.21L63.41 66L64.19 65.76L64.99 65.49L65.79 65.17L66.59 64.81L67.41 64.41L68.22 63.97L69.03 63.48L69.85 62.94L70.66 62.36L71.46 61.72L72.26 61.04L73.04 60.31L73.81 59.52L74.56 58.68L75.29 57.79L76 56.84L76.68 55.84L77.33 54.79L77.95 53.68L78.53 52.51L79.07 51.29L79.56 50.02L80 48.7L80.39 47.32L80.72 45.89L80.98 44.41L81.18 42.88L81.31 41.31L81.36 39.69L81.33 38.03L81.21 36.33L81 34.6L80.7 32.84L80.29 31.05L79.77 29.24L79.14 27.4L78.39 25.56L77.52 23.71L76.51 21.86L75.36 20.01L74.07 18.17L72.63 16.36L71.01 14.58L69.22 12.83L67.22 11.14L65 9.51L62.51 7.95L59.67 6.49L56.24 5.15L50 4Z" fill="#2E9C9C"/>
  <path d="M93.75 35.79L92.15 33.46L91.46 33.65L90.94 34.23L90.49 35L90.09 35.88L89.71 36.83L89.35 37.84L88.98 38.88L88.61 39.94L88.24 41.02L87.85 42.1L87.44 43.19L87.02 44.29L86.58 45.37L86.12 46.46L85.64 47.53L85.14 48.59L84.61 49.65L84.07 50.68L83.5 51.7L82.9 52.71L82.29 53.69L81.65 54.65L80.98 55.59L80.3 56.51L79.59 57.4L78.87 58.27L78.12 59.11L77.35 59.93L76.56 60.71L75.75 61.47L74.93 62.19L74.08 62.88L73.22 63.54L72.35 64.17L71.46 64.77L70.56 65.32L69.64 65.85L68.72 66.34L67.78 66.79L66.84 67.2L65.89 67.58L64.93 67.92L63.97 68.22L63 68.48L62.03 68.71L61.06 68.89L60.1 69.04L59.13 69.15L58.17 69.22L57.21 69.25L56.27 69.24L55.33 69.19L54.39 69.1L53.47 68.98L52.57 68.82L51.67 68.62L50.8 68.38L49.94 68.11L49.09 67.81L48.27 67.47L47.47 67.09L46.69 66.68L45.94 66.24L45.21 65.76L44.51 65.26L43.83 64.72L43.19 64.16L42.57 63.57L41.98 62.94L41.43 62.29L40.9 61.61L40.41 60.9L39.95 60.17L39.53 59.4L39.14 58.59L38.78 57.73L38.44 56.81L38.12 55.77L37.64 54.02L37.64 54.02L37.22 53.32L37.01 53.35L36.83 53.51L36.67 53.74L36.52 54.02L36.38 54.34L36.26 54.69L36.15 55.06L36.05 55.47L35.96 55.89L35.89 56.34L35.84 56.81L35.81 57.3L35.79 57.81L35.79 58.34L35.81 58.88L35.85 59.44L35.92 60.01L36.01 60.6L36.13 61.2L36.27 61.81L36.44 62.44L36.63 63.07L36.86 63.72L37.12 64.37L37.41 65.03L37.74 65.69L38.1 66.36L38.49 67.03L38.92 67.7L39.39 68.37L39.9 69.04L40.45 69.7L41.04 70.36L41.67 71.01L42.35 71.64L43.07 72.27L43.83 72.88L44.63 73.46L45.48 74.03L46.38 74.58L47.32 75.1L48.3 75.58L49.33 76.04L50.41 76.46L51.52 76.84L52.69 77.18L53.89 77.47L55.14 77.72L56.42 77.91L57.75 78.04L59.11 78.12L60.51 78.13L61.94 78.07L63.4 77.94L64.89 77.74L66.41 77.46L67.94 77.09L69.5 76.64L71.07 76.1L72.64 75.46L74.23 74.73L75.81 73.89L77.38 72.95L78.95 71.9L80.49 70.73L82.02 69.45L83.51 68.04L84.96 66.51L86.36 64.86L87.71 63.06L88.98 61.12L90.18 59.04L91.29 56.79L92.28 54.37L93.15 51.76L93.86 48.91L94.37 45.75L94.58 42.08L93.75 35.79Z" fill="#3E7CB1"/>
  <path d="M77.04 87.21L78.76 84.98L78.36 84.38L77.65 84.06L76.78 83.87L75.82 83.77L74.79 83.7L73.73 83.66L72.63 83.64L71.5 83.62L70.36 83.59L69.21 83.56L68.04 83.51L66.88 83.44L65.7 83.36L64.53 83.26L63.36 83.13L62.2 82.98L61.03 82.81L59.88 82.61L58.73 82.38L57.59 82.13L56.47 81.85L55.35 81.54L54.26 81.2L53.17 80.83L52.1 80.43L51.05 80.01L50.02 79.56L49.01 79.08L48.02 78.57L47.05 78.04L46.11 77.47L45.19 76.89L44.3 76.27L43.43 75.63L42.59 74.97L41.78 74.29L41 73.58L40.25 72.85L39.53 72.1L38.84 71.33L38.19 70.54L37.57 69.73L36.99 68.91L36.44 68.08L35.93 67.22L35.45 66.36L35.01 65.49L34.61 64.6L34.25 63.71L33.93 62.81L33.64 61.9L33.4 60.99L33.19 60.08L33.02 59.17L32.9 58.26L32.81 57.35L32.76 56.44L32.75 55.54L32.78 54.64L32.86 53.75L32.97 52.88L33.11 52.01L33.3 51.16L33.53 50.32L33.79 49.49L34.09 48.69L34.43 47.9L34.8 47.12L35.21 46.37L35.66 45.64L36.15 44.94L36.67 44.25L37.23 43.59L37.83 42.95L38.48 42.32L39.18 41.72L39.95 41.11L40.84 40.49L42.36 39.48L42.36 39.48L42.89 38.87L42.8 38.68L42.59 38.56L42.32 38.48L42.01 38.42L41.67 38.39L41.3 38.38L40.9 38.39L40.49 38.42L40.06 38.47L39.61 38.54L39.14 38.64L38.67 38.76L38.18 38.9L37.68 39.06L37.17 39.25L36.65 39.46L36.13 39.7L35.6 39.97L35.06 40.27L34.52 40.59L33.98 40.94L33.44 41.33L32.9 41.74L32.36 42.19L31.82 42.67L31.29 43.19L30.76 43.73L30.25 44.32L29.74 44.94L29.25 45.59L28.77 46.28L28.31 47.01L27.87 47.77L27.45 48.57L27.05 49.41L26.68 50.29L26.34 51.2L26.02 52.15L25.75 53.13L25.51 54.15L25.3 55.2L25.14 56.29L25.03 57.41L24.96 58.56L24.94 59.74L24.98 60.95L25.07 62.19L25.23 63.45L25.44 64.73L25.72 66.04L26.07 67.36L26.5 68.69L26.99 70.03L27.57 71.38L28.22 72.74L28.96 74.09L29.78 75.44L30.69 76.78L31.69 78.1L32.78 79.4L33.97 80.68L35.25 81.93L36.64 83.13L38.12 84.3L39.71 85.41L41.4 86.46L43.19 87.44L45.1 88.35L47.11 89.17L49.23 89.9L51.47 90.51L53.82 91.01L56.3 91.36L58.91 91.56L61.66 91.58L64.59 91.37L67.75 90.88L71.31 89.95L77.04 87.21Z" fill="#7FC4C0"/>
  <path d="M22.96 87.21L25.62 88.16L26.07 87.6L26.15 86.82L26.06 85.94L25.86 84.99L25.61 84L25.32 82.97L25 81.91L24.67 80.84L24.35 79.74L24.02 78.64L23.71 77.52L23.41 76.38L23.12 75.25L22.86 74.1L22.62 72.95L22.4 71.79L22.21 70.63L22.04 69.47L21.9 68.31L21.79 67.15L21.71 65.99L21.66 64.84L21.65 63.69L21.66 62.54L21.71 61.4L21.78 60.27L21.9 59.15L22.04 58.04L22.22 56.95L22.43 55.86L22.67 54.79L22.94 53.73L23.25 52.69L23.59 51.67L23.96 50.67L24.36 49.69L24.79 48.72L25.26 47.79L25.75 46.87L26.27 45.98L26.82 45.12L27.39 44.28L27.99 43.47L28.62 42.69L29.27 41.94L29.94 41.22L30.64 40.53L31.36 39.88L32.09 39.26L32.85 38.67L33.62 38.12L34.41 37.61L35.22 37.13L36.03 36.69L36.86 36.28L37.7 35.92L38.55 35.59L39.4 35.31L40.27 35.06L41.13 34.86L42 34.69L42.87 34.56L43.74 34.48L44.61 34.43L45.47 34.43L46.33 34.46L47.19 34.54L48.04 34.66L48.88 34.82L49.71 35.02L50.53 35.26L51.35 35.54L52.15 35.87L52.95 36.24L53.74 36.67L54.53 37.15L55.34 37.69L56.22 38.35L57.64 39.48L57.64 39.48L58.39 39.8L58.54 39.65L58.59 39.42L58.59 39.14L58.55 38.82L58.47 38.49L58.36 38.13L58.23 37.76L58.07 37.38L57.89 36.98L57.68 36.58L57.45 36.17L57.19 35.75L56.91 35.33L56.6 34.9L56.26 34.48L55.9 34.05L55.51 33.63L55.09 33.2L54.64 32.78L54.17 32.37L53.66 31.97L53.13 31.57L52.57 31.18L51.97 30.81L51.35 30.44L50.7 30.1L50.01 29.77L49.3 29.46L48.56 29.17L47.78 28.9L46.98 28.66L46.14 28.45L45.28 28.26L44.39 28.11L43.47 27.99L42.52 27.91L41.55 27.86L40.55 27.86L39.53 27.9L38.49 27.99L37.42 28.12L36.34 28.3L35.23 28.54L34.12 28.83L32.99 29.18L31.85 29.59L30.7 30.06L29.55 30.6L28.4 31.2L27.25 31.87L26.1 32.61L24.96 33.42L23.84 34.31L22.73 35.27L21.65 36.31L20.59 37.43L19.56 38.63L18.57 39.91L17.62 41.27L16.72 42.71L15.87 44.23L15.08 45.84L14.36 47.53L13.71 49.3L13.14 51.15L12.67 53.09L12.29 55.1L12.01 57.19L11.85 59.35L11.82 61.6L11.92 63.92L12.18 66.31L12.61 68.77L13.22 71.32L14.06 73.94L15.16 76.66L16.61 79.52L18.59 82.61L22.96 87.21Z" fill="#2A6E8F"/>
  <path d="M6.25 35.79L6.18 38.61L6.85 38.86L7.61 38.7L8.42 38.34L9.26 37.86L10.13 37.31L11.02 36.71L11.92 36.08L12.85 35.44L13.78 34.79L14.74 34.14L15.71 33.5L16.69 32.86L17.68 32.24L18.69 31.63L19.71 31.05L20.75 30.48L21.79 29.94L22.84 29.42L23.9 28.93L24.97 28.47L26.05 28.04L27.13 27.63L28.22 27.26L29.31 26.92L30.41 26.61L31.51 26.34L32.61 26.1L33.71 25.89L34.81 25.72L35.91 25.59L37 25.49L38.09 25.42L39.17 25.39L40.25 25.4L41.32 25.44L42.38 25.52L43.42 25.63L44.46 25.78L45.48 25.97L46.49 26.19L47.48 26.44L48.45 26.73L49.41 27.05L50.35 27.41L51.26 27.79L52.15 28.21L53.02 28.66L53.87 29.14L54.68 29.65L55.48 30.19L56.24 30.75L56.97 31.35L57.67 31.96L58.35 32.6L58.98 33.27L59.59 33.95L60.16 34.66L60.7 35.38L61.2 36.13L61.66 36.89L62.09 37.66L62.48 38.45L62.83 39.25L63.14 40.06L63.41 40.88L63.64 41.71L63.83 42.55L63.99 43.39L64.09 44.24L64.16 45.1L64.18 45.95L64.17 46.81L64.1 47.68L63.99 48.55L63.84 49.44L63.63 50.34L63.36 51.28L63 52.31L62.36 54.02L62.36 54.02L62.29 54.82L62.48 54.92L62.72 54.9L62.99 54.81L63.27 54.67L63.57 54.5L63.87 54.29L64.18 54.05L64.5 53.78L64.82 53.48L65.14 53.16L65.46 52.81L65.78 52.44L66.09 52.03L66.4 51.61L66.7 51.16L66.99 50.68L67.27 50.18L67.55 49.65L67.81 49.09L68.05 48.52L68.28 47.91L68.5 47.28L68.69 46.63L68.86 45.95L69.02 45.24L69.14 44.51L69.25 43.76L69.32 42.99L69.37 42.19L69.38 41.37L69.36 40.53L69.31 39.67L69.21 38.79L69.08 37.9L68.91 36.99L68.7 36.06L68.44 35.12L68.14 34.17L67.78 33.21L67.38 32.25L66.92 31.27L66.41 30.3L65.85 29.33L65.22 28.35L64.54 27.39L63.8 26.43L63 25.49L62.14 24.56L61.21 23.65L60.21 22.76L59.15 21.9L58.03 21.06L56.84 20.27L55.58 19.51L54.26 18.8L52.86 18.14L51.41 17.53L49.88 16.99L48.3 16.5L46.65 16.09L44.94 15.76L43.16 15.5L41.33 15.34L39.45 15.27L37.51 15.3L35.53 15.45L33.5 15.71L31.43 16.09L29.31 16.61L27.17 17.27L25 18.09L22.8 19.07L20.59 20.24L18.36 21.61L16.13 23.22L13.88 25.11L11.61 27.36L9.28 30.2L6.25 35.79Z" fill="#5AAFAF"/>
  <path d="M60 50L59.95 50.98L59.81 51.95L59.57 52.9L59.24 53.83L58.82 54.71L58.31 55.56L57.73 56.34L57.07 57.07L56.34 57.73L55.56 58.31L54.71 58.82L53.83 59.24L52.9 59.57L51.95 59.81L50.98 59.95L50 60L49.02 59.95L48.05 59.81L47.1 59.57L46.17 59.24L45.29 58.82L44.44 58.31L43.66 57.73L42.93 57.07L42.27 56.34L41.69 55.56L41.18 54.71L40.76 53.83L40.43 52.9L40.19 51.95L40.05 50.98L40 50L40.05 49.02L40.19 48.05L40.43 47.1L40.76 46.17L41.18 45.29L41.69 44.44L42.27 43.66L42.93 42.93L43.66 42.27L44.44 41.69L45.29 41.18L46.17 40.76L47.1 40.43L48.05 40.19L49.02 40.05L50 40L50.98 40.05L51.95 40.19L52.9 40.43L53.83 40.76L54.71 41.18L55.56 41.69L56.34 42.27L57.07 42.93L57.73 43.66L58.31 44.44L58.82 45.29L59.24 46.17L59.57 47.1L59.81 48.05L59.95 49.02Z" fill="#9FD4D0"/>
</svg>
